<?xml version="1.0" encoding="UTF-8" standalone="no"?>
<!-- Created with Inkscape (http://www.inkscape.org/) -->

<svg
   xmlns:dc="http://purl.org/dc/elements/1.1/"
   xmlns:cc="http://creativecommons.org/ns#"
   xmlns:rdf="http://www.w3.org/1999/02/22-rdf-syntax-ns#"
   xmlns:svg="http://www.w3.org/2000/svg"
   xmlns="http://www.w3.org/2000/svg"
   xmlns:xlink="http://www.w3.org/1999/xlink"
   xmlns:sodipodi="http://sodipodi.sourceforge.net/DTD/sodipodi-0.dtd"
   xmlns:inkscape="http://www.inkscape.org/namespaces/inkscape"
   width="4096"
   height="4096"
   id="svg2"
   version="1.1"
   inkscape:version="0.48.2 r9819"
   sodipodi:docname="Fuselage mirror.svg"
   inkscape:export-filename="C:\Users\Nick\Documents\El Grande\Assets\3D Assets\Plane\Textures\Fuselage Mirror.png"
   inkscape:export-xdpi="90"
   inkscape:export-ydpi="90">
  <defs
     id="defs4">
    <linearGradient
       id="linearGradient3966">
      <stop
         style="stop-color:#000000;stop-opacity:1;"
         offset="0"
         id="stop3968" />
      <stop
         style="stop-color:#333333;stop-opacity:0;"
         offset="1"
         id="stop3970" />
    </linearGradient>
    <filter
       id="filter3112"
       inkscape:label="Cross-smooth"
       inkscape:menu="Blurs"
       inkscape:menu-tooltip="Blur inner borders and intersections"
       color-interpolation-filters="sRGB">
      <feGaussianBlur
         id="feGaussianBlur3114"
         stdDeviation="3" />
      <feColorMatrix
         id="feColorMatrix3116"
         result="fbSourceGraphic"
         values="1 0 0 0 0 0 1 0 0 0 0 0 1 0 0 0 0 0 6 -2.5 " />
    </filter>
    <linearGradient
       inkscape:collect="always"
       xlink:href="#linearGradient3966"
       id="linearGradient3984"
       gradientUnits="userSpaceOnUse"
       x1="3105.6245"
       y1="3518.6262"
       x2="3105.6245"
       y2="3487.1521" />
    <linearGradient
       inkscape:collect="always"
       xlink:href="#linearGradient3966"
       id="linearGradient3994"
       gradientUnits="userSpaceOnUse"
       x1="3105.6245"
       y1="3518.6262"
       x2="3105.6245"
       y2="3487.1521" />
    <linearGradient
       inkscape:collect="always"
       xlink:href="#linearGradient3966"
       id="linearGradient4024"
       gradientUnits="userSpaceOnUse"
       x1="3105.6245"
       y1="3518.6262"
       x2="3105.6245"
       y2="3487.1521" />
    <linearGradient
       inkscape:collect="always"
       xlink:href="#linearGradient3966"
       id="linearGradient4026"
       gradientUnits="userSpaceOnUse"
       x1="3105.6245"
       y1="3518.6262"
       x2="3105.6245"
       y2="3487.1521" />
    <linearGradient
       inkscape:collect="always"
       xlink:href="#linearGradient3966"
       id="linearGradient3136"
       gradientUnits="userSpaceOnUse"
       x1="3105.6245"
       y1="3518.6262"
       x2="3105.6245"
       y2="3487.1521" />
    <linearGradient
       inkscape:collect="always"
       xlink:href="#linearGradient3966"
       id="linearGradient3138"
       gradientUnits="userSpaceOnUse"
       x1="3105.6245"
       y1="3518.6262"
       x2="3105.6245"
       y2="3487.1521" />
    <linearGradient
       inkscape:collect="always"
       xlink:href="#linearGradient3966"
       id="linearGradient3140"
       gradientUnits="userSpaceOnUse"
       x1="3105.6245"
       y1="3518.6262"
       x2="3105.6245"
       y2="3487.1521" />
    <linearGradient
       inkscape:collect="always"
       xlink:href="#linearGradient3966"
       id="linearGradient3142"
       gradientUnits="userSpaceOnUse"
       x1="3105.6245"
       y1="3518.6262"
       x2="3105.6245"
       y2="3487.1521" />
  </defs>
  <sodipodi:namedview
     id="base"
     pagecolor="#000000"
     bordercolor="#666666"
     borderopacity="1.0"
     inkscape:pageopacity="0"
     inkscape:pageshadow="2"
     inkscape:zoom="0.15112305"
     inkscape:cx="199.84951"
     inkscape:cy="1795.4806"
     inkscape:document-units="px"
     inkscape:current-layer="layer2"
     showgrid="false"
     inkscape:snap-page="true"
     inkscape:window-width="1680"
     inkscape:window-height="988"
     inkscape:window-x="-8"
     inkscape:window-y="-8"
     inkscape:window-maximized="1"
     inkscape:object-paths="true"
     inkscape:object-nodes="true"
     showguides="true"
     inkscape:guide-bbox="true"
     inkscape:snap-nodes="false">
    <sodipodi:guide
       orientation="1,0"
       position="2882.4578,581.96608"
       id="guide3048" />
    <sodipodi:guide
       orientation="1,0"
       position="1032.2714,3560.0129"
       id="guide4217" />
  </sodipodi:namedview>
  <metadata
     id="metadata7">
    <rdf:RDF>
      <cc:Work
         rdf:about="">
        <dc:format>image/svg+xml</dc:format>
        <dc:type
           rdf:resource="http://purl.org/dc/dcmitype/StillImage" />
        <dc:title></dc:title>
      </cc:Work>
    </rdf:RDF>
  </metadata>
  <g
     inkscape:label="Layer 1"
     inkscape:groupmode="layer"
     id="layer1"
     transform="translate(0,3043.6378)"
     style="display:none"
     sodipodi:insensitive="true">
    <image
       y="-3043.6377"
       x="0"
       id="image2993"
       xlink:href="file:///C:/Users/Nick/Documents/El%20Grande/Assets/3D%20Assets/Plane/Textures/Fuslage%20UV.png"
       height="4096"
       width="4096"
       inkscape:export-xdpi="90"
       inkscape:export-ydpi="90" />
  </g>
  <g
     inkscape:groupmode="layer"
     id="layer2"
     inkscape:label="Layer"
     style="display:inline">
    <flowRoot
       xml:space="preserve"
       id="flowRoot4201"
       style="font-size:40px;font-style:normal;font-variant:normal;font-weight:bold;font-stretch:normal;line-height:125%;letter-spacing:0px;word-spacing:0px;fill:#000000;fill-opacity:1;stroke:none;font-family:Aharoni;-inkscape-font-specification:Aharoni Bold"
       transform="matrix(0,3.8361407,-3.8361407,0,5890.8391,-941.30756)"><flowRegion
         id="flowRegion4203"><rect
           id="rect4205"
           width="2662.3586"
           height="940.48169"
           x="290.09885"
           y="1302.6289"
           style="font-style:normal;font-variant:normal;font-weight:bold;font-stretch:normal;font-family:Aharoni;-inkscape-font-specification:Aharoni Bold" /></flowRegion><flowPara
         id="flowPara4207">Airways</flowPara></flowRoot>    <flowRoot
       transform="matrix(0,-3.6608708,3.6608708,0,-3577.3486,1827.2129)"
       style="font-size:40px;font-style:normal;font-variant:normal;font-weight:bold;font-stretch:normal;line-height:125%;letter-spacing:0px;word-spacing:0px;fill:#000000;fill-opacity:1;stroke:none;font-family:Aharoni;-inkscape-font-specification:Aharoni Bold"
       id="flowRoot4209"
       xml:space="preserve"><flowRegion
         id="flowRegion4211"><rect
           style="font-style:normal;font-variant:normal;font-weight:bold;font-stretch:normal;font-family:Aharoni;-inkscape-font-specification:Aharoni Bold"
           y="1302.6289"
           x="290.09885"
           height="940.48169"
           width="2662.3586"
           id="rect4213" /></flowRegion><flowPara
         id="flowPara4215">Airways</flowPara></flowRoot>    <path
       style="fill:#b3b3b3;stroke:#ececec"
       d="m 2881.4062,3453.4375 c -21.461,6.8429 -45.4423,7.8616 -64.5937,20.7187 -25.3565,15.4352 -48.0822,34.6831 -72.2856,51.7125 -8.2662,6.506 -16.3622,13.2238 -24.4019,20.0063 -0.8306,37.9359 -1.46,75.8763 -2.2812,113.8125 15.2876,-4.825 30.5744,-9.6537 45.875,-14.4375 6.2888,-17.341 12.5612,-34.688 18.8437,-52.0312 9.2459,5.5762 18.4961,11.1457 27.7813,16.6562 7.281,-7.5802 17.8397,-11.8025 24.5937,-19.7188 -5.2708,-5.3891 -3.7221,-23.2674 -3.375,-31.875 15.1401,-3.9085 29.602,-11.9922 45.5935,-10.6773 12.352,-0.5768 24.9178,-0.7304 36.4438,4.4143 6.5813,2.0773 13.1626,4.1545 19.744,6.2318 1.4742,8.9072 -3.8605,33.1779 -0.2813,35.4062 7.1802,5.3362 14.901,10.0773 21.5937,16.1876 9.247,-5.512 18.4682,-11.067 27.6876,-16.625 6.2825,17.3432 12.5548,34.6902 18.8437,52.0312 15.3089,4.7902 30.6075,9.6145 45.9063,14.4375 -0.8009,-37.9369 -1.4829,-75.8764 -2.3126,-113.8125 -26.5542,-22.9855 -55.6283,-42.7195 -83.7946,-63.595 -13.837,-9.4827 -28.5822,-18.112 -45.4595,-20.8201 -11.3565,-2.6224 -22.7608,-5.9489 -34.1209,-8.0224 z"
       id="path3128"
       inkscape:connector-curvature="0"
       sodipodi:nodetypes="cccccccccccccccccccccc" />
    <path
       style="fill:#ffffff;fill-opacity:1;stroke:#ececec"
       d="m 2882.4688,3457.2812 c -52.365,13.8855 -41.8444,8.4161 -59.9376,18.0938 -18.0931,9.6777 -61.0277,43.7567 -65.6562,46.2812 -4.6284,2.5247 -32.8125,26.0938 -32.8125,26.0938 l -2.0937,106.4375 38.6874,-12.1875 19.7813,-54.7188 29.4687,17.6876 c 0,0 8.8202,-7.5925 17.6563,-13.0626 12.1334,-8.5148 -12.2936,8.1845 0,0 l 0,-36.5937 37.4687,-11.7813 17.4376,0 17.4374,0 37.4376,11.7813 0,36.5937 c 12.177,7.308 -10.0072,-6.2089 0,0 8.836,5.4701 17.6874,13.0626 17.6874,13.0626 l 29.4376,-17.6876 19.7812,54.7188 38.7188,12.1875 -2.125,-106.4375 c 0,0 -28.1841,-23.5691 -32.8126,-26.0938 -4.6284,-2.5245 -47.5318,-36.6035 -65.625,-46.2812 -18.0931,-9.6777 -7.5725,-4.2083 -59.9374,-18.0938 z"
       id="path3092"
       inkscape:connector-curvature="0"
       sodipodi:nodetypes="cscccccccccccccccccccccsc"
       inkscape:export-xdpi="90"
       inkscape:export-ydpi="90" />
    <g
       id="g3150"
       style="stroke:#ececec">
      <path
         sodipodi:nodetypes="ccc"
         inkscape:connector-curvature="0"
         id="path3146"
         d="m 2724.7011,3548.7287 54.8915,41.2868 48.9909,-33.0389 -34.0372,-64.9798"
         style="fill:none;stroke:#ececec;stroke-width:4;stroke-linecap:round;stroke-linejoin:round" />
      <path
         sodipodi:nodetypes="cc"
         inkscape:connector-curvature="0"
         id="path3148"
         d="m 2864.8896,3545.2184 -31.3553,-76.5319"
         style="fill:none;stroke:#ececec;stroke-width:4" />
    </g>
    <g
       id="g3154"
       transform="matrix(-1,0,0,1,5762.8703,0)"
       style="stroke:#ececec">
      <path
         style="fill:none;stroke:#ececec;stroke-width:4;stroke-linecap:round;stroke-linejoin:round"
         d="m 2724.7011,3548.7287 54.8915,41.2868 48.9909,-33.0389 -34.0372,-64.9798"
         id="path3156"
         inkscape:connector-curvature="0"
         sodipodi:nodetypes="ccc" />
      <path
         style="fill:none;stroke:#ececec;stroke-width:4"
         d="m 2864.8896,3545.2184 -31.3553,-76.5319"
         id="path3158"
         inkscape:connector-curvature="0"
         sodipodi:nodetypes="cc" />
    </g>
    <path
       style="font-size:medium;font-style:normal;font-variant:normal;font-weight:normal;font-stretch:normal;text-indent:0;text-align:start;text-decoration:none;line-height:normal;letter-spacing:normal;word-spacing:normal;text-transform:none;direction:ltr;block-progression:tb;writing-mode:lr-tb;text-anchor:start;baseline-shift:baseline;color:#000000;fill:#000000;fill-opacity:1;stroke:none;stroke-width:3;marker:none;visibility:visible;display:inline;overflow:visible;enable-background:accumulate;font-family:Sans;-inkscape-font-specification:Sans"
       d="m 3165.1933,3634.6212 c 14.5666,25.2302 46.886,33.913 72.1162,19.3464 25.2301,-14.5667 33.8703,-46.8975 19.3036,-72.1277 -14.5666,-25.2301 -46.8704,-33.8859 -72.1005,-19.3193 -25.2302,14.5667 -33.886,46.8705 -19.3193,72.1006 z m 2.598,-1.5 c -6.2513,-10.8275 -7.9586,-23.022 -5.7463,-34.3905 l 61.4927,22.1961 -16.0496,35.1387 11.0242,0.094 5.0681,-35.2217 3.3351,1.2139 -4.7645,31.1853 9.8134,-2.8151 -4.8782,-28.3245 27.5067,9.9555 c -4.2302,7.7521 -10.5717,14.4751 -18.7834,19.2162 -23.8261,13.756 -54.2622,5.5778 -68.0182,-18.2483 z m -5.6475,-34.8444 c 2.7518,-13.4678 11.0162,-25.7377 23.8688,-33.1581 11.9889,-6.9218 25.6456,-8.2914 38.0106,-4.9136 l -13.9931,46.0758 -47.8863,-8.0041 z m 32.0275,53.7858 9.8474,2.1811 15.9207,-34.487 -2.7237,-0.5925 -23.0444,32.8984 z m 17.3289,-45.5479 31.3855,-36.4513 c 4.3384,3.6384 8.1324,8.0857 11.1294,13.2765 5.688,9.8519 7.6347,20.8387 6.2752,31.3067 l -48.7901,-8.1319 z"
       id="path4178"
       inkscape:connector-curvature="0" />
    <path
       inkscape:connector-curvature="0"
       id="path4199"
       d="m 2504.2826,3634.6212 c 14.5666,25.2302 46.886,33.913 72.1162,19.3464 25.2301,-14.5667 33.8703,-46.8975 19.3036,-72.1277 -14.5666,-25.2301 -46.8704,-33.8859 -72.1005,-19.3193 -25.2302,14.5667 -33.886,46.8705 -19.3193,72.1006 z m 2.598,-1.5 c -6.2513,-10.8275 -7.9586,-23.022 -5.7463,-34.3905 l 61.4927,22.1961 -16.0496,35.1387 11.0242,0.094 5.0681,-35.2217 3.3351,1.2139 -4.7645,31.1853 9.8134,-2.8151 -4.8782,-28.3245 27.5067,9.9555 c -4.2302,7.7521 -10.5717,14.4751 -18.7834,19.2162 -23.8261,13.756 -54.2622,5.5778 -68.0182,-18.2483 z m -5.6475,-34.8444 c 2.7518,-13.4678 11.0162,-25.7377 23.8688,-33.1581 11.9889,-6.9218 25.6456,-8.2914 38.0106,-4.9136 l -13.9931,46.0758 -47.8863,-8.0041 z m 32.0275,53.7858 9.8474,2.1811 15.9207,-34.487 -2.7237,-0.5925 -23.0444,32.8984 z m 17.3289,-45.5479 31.3855,-36.4513 c 4.3384,3.6384 8.1324,8.0857 11.1294,13.2765 5.688,9.8519 7.6347,20.8387 6.2752,31.3067 l -48.7901,-8.1319 z"
       style="font-size:medium;font-style:normal;font-variant:normal;font-weight:normal;font-stretch:normal;text-indent:0;text-align:start;text-decoration:none;line-height:normal;letter-spacing:normal;word-spacing:normal;text-transform:none;direction:ltr;block-progression:tb;writing-mode:lr-tb;text-anchor:start;baseline-shift:baseline;color:#000000;fill:#000000;fill-opacity:1;stroke:none;stroke-width:3;marker:none;visibility:visible;display:inline;overflow:visible;enable-background:accumulate;font-family:Sans;-inkscape-font-specification:Sans" />
    <flowRoot
       xml:space="preserve"
       id="flowRoot4219"
       style="font-size:40px;font-style:normal;font-weight:bold;line-height:125%;letter-spacing:0px;word-spacing:0px;fill:#000000;fill-opacity:1;stroke:none;font-family:Sans;-inkscape-font-specification:Sans Bold"
       transform="matrix(-0.14348072,0.38320479,-0.38320479,-0.14348072,4519.3623,3509.6661)"><flowRegion
         id="flowRegion4221"><rect
           id="rect4223"
           width="96.775444"
           height="52.109856"
           x="2521.9514"
           y="3870.1907"
           style="font-weight:bold;fill:#000000;-inkscape-font-specification:Sans Bold" /></flowRegion><flowPara
         id="flowPara4225">Exit</flowPara></flowRoot>    <flowRoot
       transform="matrix(-0.09791809,-0.39729671,0.39729671,-0.09791809,1802.0181,5330.4011)"
       style="font-size:40px;font-style:normal;font-weight:bold;line-height:125%;letter-spacing:0px;word-spacing:0px;fill:#000000;fill-opacity:1;stroke:none;font-family:Sans;-inkscape-font-specification:Sans Bold"
       id="flowRoot4227"
       xml:space="preserve"><flowRegion
         id="flowRegion4229"><rect
           style="font-weight:bold;fill:#000000;-inkscape-font-specification:Sans Bold"
           y="3870.1907"
           x="2521.9514"
           height="52.109856"
           width="96.775444"
           id="rect4231" /></flowRegion><flowPara
         id="flowPara4233">Exit</flowPara></flowRoot>    <g
       id="g4251"
       transform="matrix(0,1,-1,0,611.0528,-151.79292)">
      <flowRoot
         style="font-size:40px;font-style:normal;font-variant:normal;font-weight:normal;font-stretch:normal;line-height:125%;letter-spacing:0px;word-spacing:0px;fill:#000000;fill-opacity:1;stroke:none;font-family:Swis721 BlkEx BT;-inkscape-font-specification:Swis721 BlkEx BT"
         id="flowRoot4235"
         xml:space="preserve"><flowRegion
           id="flowRegion4237"><rect
             style="font-style:normal;font-variant:normal;font-weight:normal;font-stretch:normal;font-family:Swis721 BlkEx BT;-inkscape-font-specification:Swis721 BlkEx BT"
             y="112.49111"
             x="234.90791"
             height="135.65105"
             width="506.21002"
             id="rect4239" /></flowRegion><flowPara
           id="flowPara4241">Boing 777</flowPara></flowRoot>      <flowRoot
         transform="matrix(0.67651486,0,0,0.67651486,81.862379,83.263213)"
         xml:space="preserve"
         id="flowRoot4243"
         style="font-size:40px;font-style:normal;font-variant:normal;font-weight:normal;font-stretch:normal;line-height:125%;letter-spacing:0px;word-spacing:0px;fill:#000000;fill-opacity:1;stroke:none;font-family:Swis721 BlkEx BT;-inkscape-font-specification:Swis721 BlkEx BT"><flowRegion
           id="flowRegion4245"><rect
             id="rect4247"
             width="506.21002"
             height="135.65105"
             x="234.90791"
             y="112.49111"
             style="font-style:normal;font-variant:normal;font-weight:normal;font-stretch:normal;font-family:Swis721 BlkEx BT;-inkscape-font-specification:Swis721 BlkEx BT" /></flowRegion><flowPara
           id="flowPara4249">Altoliner</flowPara></flowRoot>    </g>
    <g
       transform="matrix(0,-1,1,0,1471.9092,612.70708)"
       id="g4261">
      <flowRoot
         xml:space="preserve"
         id="flowRoot4263"
         style="font-size:40px;font-style:normal;font-variant:normal;font-weight:normal;font-stretch:normal;line-height:125%;letter-spacing:0px;word-spacing:0px;fill:#000000;fill-opacity:1;stroke:none;font-family:Swis721 BlkEx BT;-inkscape-font-specification:Swis721 BlkEx BT"><flowRegion
           id="flowRegion4265"><rect
             id="rect4267"
             width="506.21002"
             height="135.65105"
             x="234.90791"
             y="112.49111"
             style="font-style:normal;font-variant:normal;font-weight:normal;font-stretch:normal;font-family:Swis721 BlkEx BT;-inkscape-font-specification:Swis721 BlkEx BT" /></flowRegion><flowPara
           id="flowPara4269">Boing 777</flowPara></flowRoot>      <flowRoot
         style="font-size:40px;font-style:normal;font-variant:normal;font-weight:normal;font-stretch:normal;line-height:125%;letter-spacing:0px;word-spacing:0px;fill:#000000;fill-opacity:1;stroke:none;font-family:Swis721 BlkEx BT;-inkscape-font-specification:Swis721 BlkEx BT"
         id="flowRoot4271"
         xml:space="preserve"
         transform="matrix(0.67651486,0,0,0.67651486,81.862379,83.263213)"><flowRegion
           id="flowRegion4273"><rect
             style="font-style:normal;font-variant:normal;font-weight:normal;font-stretch:normal;font-family:Swis721 BlkEx BT;-inkscape-font-specification:Swis721 BlkEx BT"
             y="112.49111"
             x="234.90791"
             height="135.65105"
             width="506.21002"
             id="rect4275" /></flowRegion><flowPara
           id="flowPara4277">Altoliner</flowPara></flowRoot>    </g>
    <g
       id="g4301"
       transform="matrix(0.99761199,-0.06906743,0.06906743,0.99761199,-175.27017,34.801342)"
       style="fill:#000000">
      <flowRoot
         transform="matrix(0,1,-1,0,2901.6222,2066.1637)"
         style="font-size:40px;font-style:normal;font-weight:bold;line-height:125%;letter-spacing:0px;word-spacing:0px;fill:#000000;fill-opacity:1;stroke:none;font-family:Sans;-inkscape-font-specification:Sans Bold"
         id="flowRoot4279"
         xml:space="preserve"><flowRegion
           id="flowRegion4281"><rect
             style="font-weight:bold;-inkscape-font-specification:Sans Bold;fill:#000000"
             y="2466.5334"
             x="414.09271"
             height="106.44756"
             width="419.94147"
             id="rect4283" /></flowRegion><flowPara
           id="flowPara4285">DS5-67BN</flowPara></flowRoot>      <g
         id="g4295"
         style="fill:#000000">
        <rect
           style="fill:#000000;fill-opacity:1;stroke:none"
           id="rect4287"
           width="30.6042"
           height="43.424877"
           x="400.33603"
           y="2433.4475" />
        <rect
           y="2444.6138"
           x="400.33603"
           height="21.092083"
           width="30.6042"
           id="rect4289"
           style="fill:#000000;fill-opacity:1;stroke:none" />
        <rect
           style="fill:#000000;fill-opacity:1;stroke:none"
           id="rect4291"
           width="30.6042"
           height="6.2035532"
           x="400.33603"
           y="2436.7559" />
        <rect
           y="2468.1873"
           x="400.33603"
           height="6.2035532"
           width="30.6042"
           id="rect4293"
           style="fill:#000000;fill-opacity:1;stroke:none" />
      </g>
    </g>
    <g
       transform="matrix(-0.99534974,-0.096327,0.096327,-0.99534974,1825.163,5132.1304)"
       id="g4312"
       style="fill:#000000">
      <flowRoot
         xml:space="preserve"
         id="flowRoot4314"
         style="font-size:40px;font-style:normal;font-weight:bold;line-height:125%;letter-spacing:0px;word-spacing:0px;fill:#000000;fill-opacity:1;stroke:none;font-family:Sans;-inkscape-font-specification:Sans Bold"
         transform="matrix(0,1,-1,0,2901.6222,2066.1637)"><flowRegion
           id="flowRegion4316"><rect
             id="rect4318"
             width="419.94147"
             height="106.44756"
             x="414.09271"
             y="2466.5334"
             style="font-weight:bold;-inkscape-font-specification:Sans Bold;fill:#000000" /></flowRegion><flowPara
           id="flowPara4320">DS5-67BN</flowPara></flowRoot>      <g
         id="g4322"
         style="fill:#000000">
        <rect
           y="2433.4475"
           x="400.33603"
           height="43.424877"
           width="30.6042"
           id="rect4324"
           style="fill:#000000;fill-opacity:1;stroke:none" />
        <rect
           style="fill:#000000;fill-opacity:1;stroke:none"
           id="rect4326"
           width="30.6042"
           height="21.092083"
           x="400.33603"
           y="2444.6138" />
        <rect
           y="2436.7559"
           x="400.33603"
           height="6.2035532"
           width="30.6042"
           id="rect4328"
           style="fill:#000000;fill-opacity:1;stroke:none" />
        <rect
           style="fill:#000000;fill-opacity:1;stroke:none"
           id="rect4330"
           width="30.6042"
           height="6.2035532"
           x="400.33603"
           y="2468.1873" />
      </g>
    </g>
    <path
       inkscape:connector-curvature="0"
       style="fill:#ffffff;fill-opacity:1;stroke:none;display:inline"
       d="m 579.96875,251.53129 c -6.49124,-0.14657 -11.85345,4.94634 -12,11.4375 l -0.8125,36.09375 c -0.14656,6.49118 4.97749,11.85345 11.46875,12 l 65.875,1.46875 c 6.49124,0.14656 11.8222,-4.94634 11.96875,-11.4375 l 0.8125,-36.09375 c 0.14656,-6.49119 -4.94625,-11.85345 -11.4375,-12 l -65.875,-1.46875 z m 915.25005,0 -65.875,1.46875 c -6.4912,0.14655 -11.5841,5.50881 -11.4376,12 l 0.8126,36.09375 c 0.1466,6.49116 5.4774,11.58406 11.9687,11.4375 l 65.875,-1.46875 c 6.4912,-0.14655 11.6153,-5.50882 11.4687,-12 l -0.8124,-36.09375 c -0.1467,-6.49116 -5.5087,-11.58407 -12,-11.4375 z M 578.125,326.18754 c -6.49124,-0.14657 -11.82221,4.97759 -11.96875,11.46875 l -0.8125,36.09375 c -0.14656,6.49118 4.94624,11.85345 11.4375,12 l 65.875,1.46875 c 6.49123,0.14656 11.85345,-4.94634 12,-11.4375 l 0.8125,-36.125 C 655.61531,333.1651 650.49125,327.83409 644,327.68754 l -65.875,-1.5 z m 918.9375,0 -65.875,1.5 c -6.4912,0.14655 -11.6153,5.47756 -11.4687,11.96875 l 0.8124,36.125 c 0.1467,6.49116 5.5088,11.58406 12,11.4375 l 65.875,-1.46875 c 6.4913,-0.14655 11.5841,-5.50882 11.4376,-12 l -0.8126,-36.09375 c -0.1466,-6.49116 -5.4774,-11.61532 -11.9687,-11.46875 z m -920.75,74.6875 c -6.49124,-0.14657 -11.85345,4.97759 -12,11.46875 L 563.5,448.43754 c -0.14655,6.49118 4.97749,11.8222 11.46875,11.96875 l 65.875,1.5 c 6.49123,0.14656 11.8222,-4.9776 11.96875,-11.46875 l 0.8125,-36.09375 c 0.14655,-6.49119 -4.94624,-11.8222 -11.4375,-11.96875 l -65.875,-1.5 z m 922.5625,0 -65.875,1.5 c -6.4912,0.14655 -11.584,5.47756 -11.4375,11.96875 l 0.8125,36.09375 c 0.1466,6.49115 5.4775,11.61531 11.9688,11.46875 l 65.875,-1.5 c 6.4912,-0.14655 11.6152,-5.47757 11.4687,-11.96875 l -0.8125,-36.09375 c -0.1466,-6.49116 -5.5087,-11.61532 -12,-11.46875 z m -924.40625,74.6875 c -6.49123,-0.14657 -11.8222,4.94634 -11.96875,11.4375 l -0.8125,36.125 c -0.14656,6.49118 4.94624,11.8222 11.4375,11.96875 l 65.875,1.5 c 6.49124,0.14656 11.85345,-4.9776 12,-11.46875 l 0.8125,-36.09375 c 0.14656,-6.49118 -4.97749,-11.85345 -11.46875,-12 l -65.875,-1.46875 z m 926.25005,0 -65.875,1.46875 c -6.4912,0.14655 -11.6154,5.50882 -11.4688,12 l 0.8125,36.09375 c 0.1466,6.49115 5.5088,11.61531 12,11.46875 l 65.875,-1.5 c 6.4913,-0.14655 11.584,-5.47757 11.4375,-11.96875 l -0.8125,-36.125 c -0.1465,-6.49116 -5.4774,-11.58407 -11.9687,-11.4375 z m -928.06255,74.6875 c -6.49124,-0.14657 -11.85345,4.94634 -12,11.4375 l -0.8125,36.09375 c -0.14656,6.49118 4.9775,11.85345 11.46875,12 l 65.875,1.46875 c 6.49124,0.14656 11.82221,-4.94635 11.96875,-11.4375 l 0.8125,-36.09375 c 0.14656,-6.49118 -4.94624,-11.85345 -11.4375,-12 l -65.875,-1.46875 z m 929.87495,0 -65.875,1.46875 c -6.4911,0.14655 -11.5841,5.50882 -11.4374,12 l 0.8124,36.09375 c 0.1466,6.49115 5.4776,11.58406 11.9688,11.4375 l 65.875,-1.46875 c 6.4913,-0.14655 11.6154,-5.50882 11.4688,-12 l -0.8126,-36.09375 c -0.1465,-6.49116 -5.5086,-11.58407 -12,-11.4375 z m -931.7187,74.65625 c -6.49124,-0.14657 -11.8222,4.97759 -11.96875,11.46875 l -0.8125,36.09375 c -0.14656,6.49119 4.94624,11.85345 11.4375,12 l 65.875,1.46875 c 6.49124,0.14656 11.85345,-4.94635 12,-11.4375 l 0.8125,-36.125 c 0.14656,-6.49118 -4.9775,-11.8222 -11.46875,-11.96875 l -65.875,-1.5 z m 933.5625,0 -65.875,1.5 c -6.4912,0.14655 -11.6154,5.47757 -11.4688,11.96875 l 0.8126,36.125 c 0.1465,6.49115 5.5088,11.58406 12,11.4375 l 65.875,-1.46875 c 6.4912,-0.14655 11.5841,-5.50881 11.4374,-12 l -0.8124,-36.09375 c -0.1466,-6.49116 -5.4776,-11.61532 -11.9688,-11.46875 z M 569,699.59379 c -6.49124,-0.14657 -11.82221,4.97758 -11.96875,11.46875 l -0.84375,36.09375 c -0.14656,6.49119 4.97749,11.8222 11.46875,11.96875 l 65.875,1.5 c 6.49123,0.14656 11.8222,-4.94635 11.96875,-11.4375 l 0.8125,-36.125 c 0.14656,-6.49118 -4.94624,-11.8222 -11.4375,-11.96875 l -65.875,-1.5 z m 937.1875,0 -65.875,1.5 c -6.4913,0.14655 -11.5841,5.47757 -11.4375,11.96875 l 0.8125,36.125 c 0.1465,6.49115 5.4776,11.58406 11.9687,11.4375 l 65.875,-1.5 c 6.4913,-0.14655 11.5842,-5.47756 11.4376,-11.96875 l -0.8126,-36.09375 c -0.1465,-6.49117 -5.4775,-11.61532 -11.9687,-11.46875 z m -939.03125,74.6875 c -6.49123,-0.14657 -11.8222,4.94633 -11.96875,11.4375 l -0.8125,36.125 c -0.14655,6.49119 4.94624,11.8222 11.4375,11.96875 l 65.875,1.5 c 6.49123,0.14656 11.85345,-4.9776 12,-11.46875 L 644.5,787.75004 c 0.14655,-6.49118 -4.97749,-11.85345 -11.46875,-12 l -65.875,-1.46875 z m 940.84375,0 -65.875,1.46875 c -6.4913,0.14655 -11.5841,5.50882 -11.4375,12 l 0.8125,36.09375 c 0.1465,6.49115 5.4776,11.61531 11.9688,11.46875 l 65.875,-1.5 c 6.4912,-0.14655 11.6153,-5.47756 11.4687,-11.96875 L 1520,785.71879 c -0.1465,-6.49117 -5.5088,-11.58407 -12,-11.4375 z m -942.65625,74.6875 c -6.49123,-0.14657 -11.8222,4.94633 -11.96875,11.4375 l -0.8125,36.09375 c -0.14656,6.49119 4.94624,11.85345 11.4375,12 l 65.875,1.46875 c 6.49124,0.14656 11.82221,-4.94634 11.96875,-11.4375 l 0.8125,-36.09375 c 0.14656,-6.49118 -4.94624,-11.85345 -11.4375,-12 l -65.875,-1.46875 z m 944.50005,0 -65.875,1.46875 c -6.4913,0.14655 -11.6154,5.50882 -11.4688,12 l 0.8438,36.09375 c 0.1465,6.49116 5.4775,11.58406 11.9687,11.4375 l 65.875,-1.46875 c 6.4912,-0.14655 11.5841,-5.50881 11.4375,-12 l -0.8125,-36.09375 c -0.1465,-6.49117 -5.4776,-11.58407 -11.9687,-11.4375 z M 559.875,1073 c -6.49124,-0.1465 -11.85345,4.9463 -12,11.4375 l -0.78125,36.3125 c -0.11851,6.4917 5.00817,11.819 11.5,11.9375 L 624.5,1133.875 c 6.49181,0.1185 11.78774,-5.0083 11.90625,-11.5 l 0.78125,-35.9062 c 0.14656,-6.4913 -4.94624,-11.8534 -11.4375,-12 L 559.875,1073 z m 955.4375,0 -65.875,1.4688 c -6.4913,0.1466 -11.584,5.5087 -11.4375,12 l 0.7812,35.9062 c 0.1186,6.4917 5.4145,11.6185 11.9063,11.5 l 65.9063,-1.1875 c 6.4918,-0.1185 11.6184,-5.4458 11.5,-11.9375 l -0.7813,-36.3125 c -0.1466,-6.4912 -5.5088,-11.584 -12,-11.4375 z m -957.125,74.8125 c -6.49181,-0.1186 -11.819,5.0082 -11.9375,11.5 l -0.65625,36.125 c -0.11852,6.4917 5.00817,11.819 11.5,11.9375 l 65.875,1.1875 c 6.49181,0.1185 11.819,-5.0083 11.9375,-11.5 l 0.65625,-36.0937 c 0.11851,-6.4919 -5.00817,-11.819 -11.5,-11.9376 l -65.875,-1.2187 z m 958.8125,0 -65.875,1.2187 c -6.4918,0.1186 -11.6185,5.4457 -11.5,11.9376 l 0.6562,36.0937 c 0.1186,6.4917 5.4145,11.6185 11.9063,11.5 l 65.9063,-1.1875 c 6.4918,-0.1185 11.6185,-5.4458 11.5,-11.9375 l -0.6563,-36.125 c -0.1185,-6.4918 -5.4456,-11.6186 -11.9375,-11.5 z M 556.6875,1222.5 c -6.49181,-0.1185 -11.819,5.0082 -11.9375,11.5 l -0.65625,36.125 c -0.11851,6.4917 5.00817,11.819 11.5,11.9375 l 65.875,1.1875 c 6.49181,0.1185 11.81899,-5.0082 11.9375,-11.5 l 0.65625,-36.0938 c 0.11851,-6.4917 -5.00817,-11.8189 -11.5,-11.9374 l -65.875,-1.2188 z m 961.8125,0 -65.875,1.2188 c -6.4918,0.1185 -11.6186,5.4457 -11.5,11.9374 l 0.6562,36.0938 c 0.1186,6.4918 5.4457,11.6185 11.9376,11.5 l 65.875,-1.1875 c 6.4918,-0.1185 11.6185,-5.4458 11.5,-11.9375 L 1530.4375,1234 c -0.1185,-6.4918 -5.4457,-11.6185 -11.9375,-11.5 z m -963.3125,74.6875 c -6.49181,-0.1185 -11.819,5.0082 -11.9375,11.5 l -0.65625,36.125 c -0.11852,6.4918 5.00817,11.819 11.5,11.9375 l 65.875,1.1875 c 6.49181,0.1186 11.819,-5.0082 11.9375,-11.5 l 0.65625,-36.0937 c 0.11851,-6.4918 -5.00817,-11.8189 -11.5,-11.9376 l -65.875,-1.2187 z m 964.8125,0 -65.875,1.2187 c -6.4919,0.1187 -11.6185,5.4458 -11.5,11.9376 l 0.6562,36.0937 c 0.1186,6.4918 5.4457,11.6186 11.9376,11.5 l 65.875,-1.1875 c 6.4918,-0.1185 11.6186,-5.4457 11.5,-11.9375 l -0.6563,-36.125 c -0.1185,-6.4918 -5.4457,-11.6185 -11.9375,-11.5 z m -966.3125,74.6875 c -6.49181,-0.1185 -11.81899,5.0083 -11.9375,11.5 l -0.65625,36.125 c -0.11851,6.4918 5.00817,11.819 11.5,11.9375 l 65.875,1.1875 c 6.49181,0.1185 11.81899,-5.0083 11.9375,-11.5 l 0.65625,-36.0938 c 0.11851,-6.4917 -5.00817,-11.8189 -11.5,-11.9374 l -65.875,-1.2188 z m 967.8125,0 -65.875,1.2188 c -6.4918,0.1185 -11.6185,5.4457 -11.5,11.9374 l 0.6562,36.0938 c 0.1186,6.4917 5.4457,11.6185 11.9376,11.5 l 65.875,-1.1875 c 6.4918,-0.1185 11.6185,-5.4457 11.5,-11.9375 l -0.6563,-36.125 c -0.1185,-6.4917 -5.4457,-11.6185 -11.9375,-11.5 z m -969.3125,74.6875 c -6.49181,-0.1185 -11.819,5.0083 -11.9375,11.5 l -0.65625,36.125 c -0.11852,6.4918 5.00817,11.819 11.5,11.9375 l 65.875,1.1875 c 6.49181,0.1185 11.819,-5.0083 11.9375,-11.5 l 0.65625,-36.0937 c 0.11852,-6.4919 -5.00817,-11.819 -11.5,-11.9376 l -65.875,-1.2187 z m 970.8125,0 -65.875,1.2187 c -6.4918,0.1186 -11.6186,5.4457 -11.5,11.9376 l 0.6562,36.0937 c 0.1186,6.4917 5.4457,11.6185 11.9376,11.5 l 65.875,-1.1875 c 6.4918,-0.1185 11.6184,-5.4457 11.5,-11.9375 l -0.6563,-36.125 c -0.1185,-6.4917 -5.4457,-11.6185 -11.9375,-11.5 z M 550.65625,1521.25 c -6.49181,-0.1185 -11.78774,5.0083 -11.90625,11.5 l -0.65625,36.125 c -0.11851,6.4917 5.00817,11.819 11.5,11.9375 l 65.875,1.1875 c 6.49181,0.1185 11.81899,-5.0083 11.9375,-11.5 l 0.65625,-36.0938 c 0.11851,-6.4918 -5.00817,-11.8189 -11.5,-11.9374 l -65.90625,-1.2188 z m 973.84375,0 -65.875,1.2188 c -6.4918,0.1185 -11.6185,5.4456 -11.5,11.9374 l 0.6562,36.0938 c 0.1186,6.4917 5.4457,11.6185 11.9376,11.5 l 65.875,-1.1875 c 6.4918,-0.1185 11.6186,-5.4458 11.5,-11.9375 l -0.6563,-36.125 c -0.1185,-6.4917 -5.4457,-11.6185 -11.9375,-11.5 z m -975.34375,74.6875 c -6.49181,-0.1186 -11.819,5.0082 -11.9375,11.5 l -0.65625,36.125 c -0.11851,6.4917 5.03942,11.819 11.53125,11.9375 l 65.875,1.1875 c 6.49181,0.1185 11.819,-5.0083 11.9375,-11.5 l 0.65625,-36.0937 c 0.11852,-6.4919 -5.03942,-11.819 -11.53125,-11.9376 l -65.875,-1.2187 z m 976.87495,0 -65.9062,1.2187 c -6.4918,0.1186 -11.6185,5.4457 -11.5,11.9376 l 0.6562,36.0937 c 0.1186,6.4917 5.4457,11.6185 11.9376,11.5 l 65.875,-1.1875 c 6.4918,-0.1185 11.6497,-5.4458 11.5312,-11.9375 l -0.6875,-36.125 c -0.1185,-6.4918 -5.4144,-11.6186 -11.9063,-11.5 z m -978.37495,74.6875 c -6.49181,-0.1185 -11.81899,5.0082 -11.9375,11.5 l -0.65625,36.125 c -0.11851,6.4917 5.00817,11.819 11.5,11.9375 l 65.90625,1.1875 c 6.49181,0.1185 11.78775,-5.0082 11.90625,-11.5 l 0.65625,-36.0938 c 0.11851,-6.4917 -5.00817,-11.8189 -11.5,-11.9374 l -65.875,-1.2188 z m 979.87495,0 -65.875,1.2188 c -6.4918,0.1185 -11.6497,5.4457 -11.5312,11.9374 l 0.6875,36.0938 c 0.1185,6.4918 5.4144,11.6185 11.9063,11.5 l 65.9062,-1.1875 c 6.4919,-0.1185 11.6185,-5.4458 11.5,-11.9375 l -0.6562,-36.125 c -0.1186,-6.4918 -5.4457,-11.6185 -11.9376,-11.5 z m -981.37495,74.6875 c -6.49181,-0.1185 -11.819,5.0083 -11.9375,11.5 l -0.65625,36.125 c -0.11851,6.4918 5.00817,11.819 11.5,11.9375 l 65.875,1.1875 c 6.49181,0.1186 11.819,-5.0082 11.9375,-11.5 l 0.65625,-36.0937 c 0.11852,-6.4918 -5.00817,-11.819 -11.5,-11.9376 l -65.875,-1.2187 z m 982.87495,0 -65.875,1.2187 c -6.4918,0.1186 -11.6185,5.4458 -11.5,11.9376 l 0.6563,36.0937 c 0.1185,6.4918 5.4144,11.6186 11.9063,11.5 l 65.9062,-1.1875 c 6.4918,-0.1185 11.6185,-5.4457 11.5,-11.9375 l -0.6562,-36.125 c -0.1186,-6.4917 -5.4457,-11.6185 -11.9376,-11.5 z m -918.0937,74.5625 -65.875,1.4688 c -6.49126,0.1452 -11.58285,5.4775 -11.4375,11.9687 l 0.8125,36.125 c 0.14535,6.4913 5.47747,11.5828 11.96875,11.4375 l 65.875,-1.4688 c 6.49126,-0.1453 11.6141,-5.4775 11.46875,-11.9687 l -0.8125,-36.125 c -0.14534,-6.4912 -5.50872,-11.5829 -12,-11.4375 z m 853.2813,0 c -6.4913,-0.1454 -11.8234,4.9463 -11.9688,11.4375 l -0.8125,36.125 c -0.1454,6.4912 4.9774,11.8234 11.4687,11.9687 l 65.875,1.4688 c 6.4913,0.1453 11.8235,-4.9462 11.9688,-11.4375 l 0.8125,-36.125 c 0.1453,-6.4912 -4.9775,-11.8235 -11.4687,-11.9687 l -65.875,-1.4688 z m -851.75005,74.6875 -65.875,1.4687 c -6.49127,0.1453 -11.58286,5.4776 -11.4375,11.9688 l 0.8125,36.125 c 0.14535,6.4913 5.47746,11.5828 11.96875,11.4375 l 65.875,-1.4687 c 6.49127,-0.1454 11.6141,-5.4776 11.46875,-11.9688 L 624.46875,1906 c -0.14534,-6.4912 -5.50871,-11.5829 -12,-11.4375 z m 850.21875,0 c -6.4913,-0.1454 -11.8235,4.9463 -11.9687,11.4375 l -0.8126,36.125 c -0.1454,6.4912 4.9775,11.8234 11.4688,11.9688 l 65.875,1.4687 c 6.4913,0.1453 11.8234,-4.9462 11.9688,-11.4375 l 0.8124,-36.125 c 0.1455,-6.4912 -4.9774,-11.8235 -11.4687,-11.9688 l -65.875,-1.4687 z M 614,1969.25 l -65.875,1.4688 c -6.49127,0.1452 -11.58286,5.4775 -11.4375,11.9687 l 0.8125,36.125 c 0.14535,6.4912 5.47746,11.5828 11.96875,11.4375 l 65.875,-1.4688 c 6.49127,-0.1453 11.61411,-5.4776 11.46875,-11.9687 L 626,1980.6875 c -0.14535,-6.4912 -5.50871,-11.5829 -12,-11.4375 z m 847.1562,0 c -6.4912,-0.1454 -11.8234,4.9463 -11.9687,11.4375 l -0.8125,36.125 c -0.1453,6.4911 4.9775,11.8234 11.4688,11.9687 l 65.875,1.4688 c 6.4912,0.1453 11.8233,-4.9463 11.9687,-11.4375 l 0.8125,-36.125 c 0.1454,-6.4912 -4.9774,-11.8235 -11.4688,-11.9687 l -65.875,-1.4688 z m -845.5937,74.6875 -65.875,1.4687 c -6.49127,0.1453 -11.6141,5.4776 -11.46875,11.9688 l 0.8125,36.125 c 0.14534,6.4912 5.47747,11.5828 11.96875,11.4375 l 65.875,-1.4687 c 6.49126,-0.1454 11.61411,-5.4777 11.46875,-11.9688 l -0.8125,-36.125 c -0.14535,-6.4912 -5.47747,-11.5829 -11.96875,-11.4375 z m 844.0625,0 c -6.4913,-0.1454 -11.8234,4.9463 -11.9688,11.4375 l -0.8124,36.125 c -0.1453,6.4911 4.9775,11.8234 11.4687,11.9688 l 65.875,1.4687 c 6.4913,0.1453 11.8235,-4.9463 11.9687,-11.4375 l 0.8126,-36.125 c 0.1452,-6.4912 -4.9776,-11.8235 -11.4688,-11.9688 l -65.875,-1.4687 z m -842.53125,74.6875 -65.875,1.4688 c -6.49126,0.1453 -11.6141,5.4775 -11.46875,11.9687 l 0.8125,36.125 c 0.14534,6.4912 5.47747,11.5829 11.96875,11.4375 l 65.875,-1.4688 c 6.49126,-0.1453 11.6141,-5.4775 11.46875,-11.9687 l -0.8125,-36.125 c -0.14534,-6.4912 -5.47747,-11.5829 -11.96875,-11.4375 z m 841.00005,0 c -6.4912,-0.1454 -11.8234,4.9463 -11.9688,11.4375 l -0.8125,36.125 c -0.1454,6.4912 4.9774,11.8234 11.4687,11.9687 l 65.875,1.4688 c 6.4913,0.1454 11.8235,-4.9463 11.9688,-11.4375 l 0.8125,-36.125 c 0.1454,-6.4912 -4.9774,-11.8234 -11.4687,-11.9687 l -65.875,-1.4688 z m -839.4688,74.6875 -65.875,1.4687 c -6.49126,0.1454 -11.61411,5.4776 -11.46875,11.9688 l 0.8125,36.125 c 0.14535,6.4912 5.47747,11.5829 11.96875,11.4375 l 65.875,-1.4687 c 6.49127,-0.1454 11.6141,-5.4776 11.46875,-11.9688 l -0.8125,-36.125 c -0.14534,-6.4912 -5.47747,-11.5829 -11.96875,-11.4375 z m 837.9375,0 c -6.4913,-0.1454 -11.8235,4.9463 -11.9687,11.4375 l -0.8126,36.125 c -0.1454,6.4912 4.9775,11.8234 11.4688,11.9688 l 65.875,1.4687 c 6.4912,0.1454 11.8234,-4.9463 11.9688,-11.4375 l 0.8124,-36.125 c 0.1455,-6.4912 -4.9774,-11.8234 -11.4687,-11.9688 l -65.875,-1.4687 z"
       id="{http://www.w3.org/2000/svg}path9056" />
  </g>
</svg>
